<svg xmlns="http://www.w3.org/2000/svg" width="400" height="300" >
	<circle cx="10" cy="10" r="8" stroke="hsl(174, 86%, 39%)" fill="hsl(174, 86%, 39%)" />
	<circle cx="30" cy="10" r="8" stroke="hsl(174, 86%, 39%)" fill="hsl(174, 86%, 39%)" />
	<circle cx="50" cy="10" r="8" stroke="hsl(174, 86%, 39%)" fill="hsl(174, 86%, 39%)" />
	<circle cx="70" cy="10" r="8" stroke="hsl(174, 86%, 39%)" fill="hsl(174, 86%, 39%)" />
	<circle cx="90" cy="10" r="8" stroke="hsl(174, 86%, 39%)" fill="hsl(174, 86%, 39%)" />
	<circle cx="110" cy="10" r="8" stroke="hsl(174, 86%, 39%)" fill="hsl(174, 86%, 39%)" />
	<circle cx="130" cy="10" r="8" stroke="hsl(174, 86%, 39%)" fill="hsl(174, 86%, 39%)" />

	<circle cx="10" cy="30" r="8" stroke="hsl(174, 86%, 39%)" fill="hsl(174, 86%, 39%)" />
	<circle cx="30" cy="30" r="8" stroke="hsl(174, 86%, 39%)" fill="hsl(174, 86%, 39%)" />
	<circle cx="50" cy="30" r="8" stroke="hsl(174, 86%, 39%)" fill="hsl(174, 86%, 39%)" />
	<circle cx="70" cy="30" r="8" stroke="hsl(174, 86%, 39%)" fill="hsl(174, 86%, 39%)" />
	<circle cx="90" cy="30" r="8" stroke="hsl(174, 86%, 39%)" fill="hsl(174, 86%, 39%)" />
	<circle cx="110" cy="30" r="8" stroke="hsl(174, 86%, 39%)" fill="hsl(174, 86%, 39%)" />
	<circle cx="130" cy="30" r="8" stroke="hsl(174, 86%, 39%)" fill="hsl(174, 86%, 39%)" />

	<circle cx="10" cy="50" r="8" stroke="hsl(174, 86%, 39%)" fill="hsl(174, 86%, 39%)" />
	<circle cx="30" cy="50" r="8" stroke="hsl(174, 86%, 39%)" fill="hsl(174, 86%, 39%)" />
	<circle cx="50" cy="50" r="8" stroke="hsl(174, 86%, 39%)" fill="hsl(174, 86%, 39%)" />
	<circle cx="70" cy="50" r="8" stroke="hsl(174, 86%, 39%)" fill="hsl(174, 86%, 39%)" />
	<circle cx="90" cy="50" r="8" stroke="hsl(174, 86%, 39%)" fill="hsl(174, 86%, 39%)" />
	<circle cx="110" cy="50" r="8" stroke="hsl(174, 86%, 39%)" fill="hsl(174, 86%, 39%)" />
	<circle cx="130" cy="50" r="8" stroke="hsl(174, 86%, 39%)" fill="hsl(174, 86%, 39%)" />

	<circle cx="10" cy="70" r="8" stroke="hsl(174, 86%, 39%)" fill="hsl(174, 86%, 39%)" />
	<circle cx="30" cy="70" r="8" stroke="hsl(174, 86%, 39%)" fill="hsl(174, 86%, 39%)" />
	<circle cx="50" cy="70" r="8" stroke="hsl(174, 86%, 39%)" fill="hsl(174, 86%, 39%)" />
	<circle cx="70" cy="70" r="8" stroke="hsl(174, 86%, 39%)" fill="hsl(174, 86%, 39%)" />
	<circle cx="90" cy="70" r="8" stroke="hsl(174, 86%, 39%)" fill="hsl(174, 86%, 39%)" />
	<circle cx="110" cy="70" r="8" stroke="hsl(174, 86%, 39%)" fill="hsl(174, 86%, 39%)" />
	<circle cx="130" cy="70" r="8" stroke="hsl(174, 86%, 39%)" fill="hsl(174, 86%, 39%)" />

	<circle cx="10" cy="90" r="8" stroke="hsl(174, 86%, 39%)" fill="hsl(174, 86%, 39%)" />
	<circle cx="30" cy="90" r="8" stroke="hsl(174, 86%, 39%)" fill="hsl(174, 86%, 39%)" />
	<circle cx="50" cy="90" r="8" stroke="hsl(174, 86%, 39%)" fill="hsl(174, 86%, 39%)" />
	<circle cx="70" cy="90" r="8" stroke="hsl(174, 86%, 39%)" fill="hsl(174, 86%, 39%)" />
	<circle cx="90" cy="90" r="8" stroke="hsl(174, 86%, 39%)" fill="hsl(174, 86%, 39%)" />
	<circle cx="110" cy="90" r="8" stroke="hsl(174, 86%, 39%)" fill="hsl(174, 86%, 39%)" />
	<circle cx="130" cy="90" r="8" stroke="hsl(174, 86%, 39%)" fill="hsl(174, 86%, 39%)" />

	<circle cx="10" cy="110" r="8" stroke="hsl(174, 86%, 39%)" fill="hsl(174, 86%, 39%)" />
	<circle cx="30" cy="110" r="8" stroke="hsl(174, 86%, 39%)" fill="hsl(174, 86%, 39%)" />
	<circle cx="50" cy="110" r="8" stroke="hsl(174, 86%, 39%)" fill="hsl(174, 86%, 39%)" />
	<circle cx="70" cy="110" r="8" stroke="hsl(174, 86%, 39%)" fill="hsl(174, 86%, 39%)" />
	<circle cx="90" cy="110" r="8" stroke="hsl(174, 86%, 39%)" fill="hsl(174, 86%, 39%)" />
	<circle cx="110" cy="110" r="8" stroke="hsl(174, 86%, 39%)" fill="hsl(174, 86%, 39%)" />
	<circle cx="130" cy="110" r="8" stroke="hsl(174, 86%, 39%)" fill="hsl(174, 86%, 39%)" />

</svg>